<?xml version="1.0" standalone="no"?><!DOCTYPE svg PUBLIC "-//W3C//DTD SVG 1.1//EN" "http://www.w3.org/Graphics/SVG/1.1/DTD/svg11.dtd"><svg class="icon" height="512" viewBox="0 0 1024 1024" version="1.1" xmlns="http://www.w3.org/2000/svg"><path d="M621.945263 658.863158c0-14.282105 0.215579-30.019368 0.431158-46.618947 17.246316-18.809263 56.697263-67.260632 72.272842-133.281685 15.952842-7.383579 29.372632-23.228632 37.726316-45.379368 11.695158-31.258947 12.557474-74.266947-10.24-102.184421a10.347789 10.347789 0 0 0 0.269474-1.401263c4.311579-39.127579 15.629474-142.982737-46.942316-211.105685A222.477474 222.477474 0 0 0 514.964211 46.888421a222.477474 222.477474 0 0 0-160.444632 72.003368c-62.625684 68.122947-51.2 171.978105-46.996211 211.105685 0 0.538947 0.107789 0.862316 0.161685 1.401263-22.797474 27.917474-21.935158 70.979368-10.24 102.184421 8.461474 22.096842 21.665684 37.995789 37.564631 45.379368 15.629474 66.074947 54.864842 114.472421 72.057263 133.281685 0.215579 16.707368-0.269474 30.72-0.269473 44.94821 0 156.833684-359.909053 122.341053-359.909053 283.378526v43.600842h937.229474v-43.600842c0-162.330947-362.172632-127.892211-362.172632-281.707789z" fill="#2c2c2c" /></svg>